<svg width="1200" height="900" viewBox="0 0 1200 900" fill="none" xmlns="http://www.w3.org/2000/svg">
  <defs>
    <linearGradient id="chip" x1="238" y1="132" x2="1023" y2="809" gradientUnits="userSpaceOnUse">
      <stop stop-color="#132236"/>
      <stop offset="0.48" stop-color="#080E18"/>
      <stop offset="1" stop-color="#211348"/>
    </linearGradient>
    <linearGradient id="trace" x1="157" y1="190" x2="1044" y2="756" gradientUnits="userSpaceOnUse">
      <stop stop-color="#56F5D4"/>
      <stop offset="0.55" stop-color="#8B5CF6"/>
      <stop offset="1" stop-color="#F6CE78"/>
    </linearGradient>
    <radialGradient id="glow" cx="0" cy="0" r="1" gradientUnits="userSpaceOnUse" gradientTransform="translate(600 450) rotate(90) scale(420 520)">
      <stop stop-color="#56F5D4" stop-opacity="0.38"/>
      <stop offset="0.45" stop-color="#8B5CF6" stop-opacity="0.17"/>
      <stop offset="1" stop-color="#05070D" stop-opacity="0"/>
    </radialGradient>
    <filter id="soft" x="-50%" y="-50%" width="200%" height="200%">
      <feGaussianBlur stdDeviation="18" result="b"/>
      <feColorMatrix in="b" type="matrix" values="0 0 0 0 0.35 0 0 0 0 0.96 0 0 0 0 0.83 0 0 0 .75 0"/>
    </filter>
  </defs>
  <rect width="1200" height="900" fill="url(#glow)" opacity=".9"/>
  <g opacity=".42">
    <path d="M118 120H1082V780H118V120Z" stroke="#56F5D4" stroke-opacity=".16"/>
    <path d="M168 170H1032V730H168V170Z" stroke="#8B5CF6" stroke-opacity=".16"/>
    <path d="M218 220H982V680H218V220Z" stroke="#F6CE78" stroke-opacity=".12"/>
  </g>
  <g filter="url(#soft)">
    <path d="M599 150C711 150 808 214 856 307C941 319 1006 391 1006 479C1006 576 927 655 830 655H746C713 715 650 752 579 752C484 752 404 684 387 594C283 582 202 493 202 386C202 270 296 176 412 176C445 176 476 184 504 197C532 168 565 150 599 150Z" fill="url(#trace)" opacity=".18"/>
  </g>
  <g transform="translate(295 180) rotate(-5 305 270)">
    <rect x="94" y="70" width="422" height="422" rx="54" fill="url(#chip)" stroke="url(#trace)" stroke-opacity=".45" stroke-width="2"/>
    <rect x="132" y="108" width="346" height="346" rx="36" fill="#070C14" stroke="#FFFFFF" stroke-opacity=".08"/>
    <rect x="178" y="154" width="254" height="254" rx="28" fill="url(#chip)" stroke="#56F5D4" stroke-opacity=".35"/>
    <rect x="205" y="181" width="200" height="200" rx="24" fill="#0A1221" stroke="#8B5CF6" stroke-opacity=".22"/>
    <g opacity=".85" stroke="url(#trace)" stroke-width="3" stroke-linecap="round">
      <path d="M94 128H33M94 178H1M94 228H33M94 278H1M94 328H33M94 378H1M94 428H33"/>
      <path d="M516 128H577M516 178H609M516 228H577M516 278H609M516 328H577M516 378H609M516 428H577"/>
      <path d="M152 70V9M202 70V-23M252 70V9M302 70V-23M352 70V9M402 70V-23M452 70V9"/>
      <path d="M152 492V553M202 492V585M252 492V553M302 492V585M352 492V553M402 492V585M452 492V553"/>
    </g>
    <g stroke="#56F5D4" stroke-opacity=".22" fill="none">
      <path d="M132 184H214C235 184 252 201 252 222V278C252 299 269 316 290 316H360"/>
      <path d="M478 280H398C377 280 360 297 360 318V388"/>
      <path d="M132 392H222C247 392 267 372 267 347V318"/>
      <path d="M478 156H406C385 156 368 173 368 194V224"/>
      <path d="M220 242H272C288 242 301 255 301 271V306"/>
      <path d="M407 338H348C332 338 319 325 319 309V266"/>
    </g>
    <g opacity=".4" fill="#56F5D4">
      <circle cx="252" cy="278" r="5"/><circle cx="360" cy="316" r="5"/><circle cx="368" cy="224" r="5"/><circle cx="267" cy="318" r="5"/>
    </g>
  </g>
</svg>