<svg xmlns="http://www.w3.org/2000/svg" viewBox="0 0 64 64" fill="none">
  <path d="M16 26c3.2-12.8 11.2-19.2 24-19.2 19.2 0 21.6 14.4 12 21.6-6.4 4.8-13.6 5.6-15.2 11.2" stroke="#38BDF8" stroke-width="0" fill="#38BDF8"/>
  <path d="M16 26c3.2-12.8 11.2-19.2 24-19.2 19.2 0 21.6 14.4 12 21.6-3.2 2.4-7 3.8-10 5.2-4.4 2-7.2 4.2-8 10.4H28c.8-6.4 3.2-9.2 8-12 3.6-2 6.4-3 8.8-4.8 6.4-4.8 4.8-13.6-4.8-13.6-8.8 0-14.4 4.8-16.8 14.4L16 26z" fill="#38BDF8"/>
  <path d="M24 44.4c3.2-12.8 11.2-19.2 24-19.2 19.2 0 21.6 14.4 12 21.6-3.2 2.4-7 3.8-10 5.2-4.4 2-7.2 4.2-8 10.4h-6c.8-6.4 3.2-9.2 8-12 3.6-2 6.4-3 8.8-4.8 6.4-4.8 4.8-13.6-4.8-13.6-8.8 0-14.4 4.8-16.8 14.4L24 44.4z" fill="#38BDF8" opacity="0.5"/>
</svg>
